<?xml version="1.0" standalone="no"?>
<!DOCTYPE svg PUBLIC "-//W3C//DTD SVG 20010904//EN"
 "http://www.w3.org/TR/2001/REC-SVG-20010904/DTD/svg10.dtd">
<svg version="1.0" xmlns="http://www.w3.org/2000/svg"
 width="739.000000pt" height="656.000000pt" viewBox="0 0 739.000000 656.000000"
 preserveAspectRatio="xMidYMid meet">
<metadata>
Created by potrace 1.16, written by Peter Selinger 2001-2019
</metadata>
<g transform="translate(0.000000,656.000000) scale(0.100000,-0.100000)"
fill="#000000" stroke="none">
<path d="M3463 4943 l-253 -136 0 -39 0 -38 523 2 522 3 3 35 3 35 -252 135
c-138 74 -261 136 -273 137 -11 1 -135 -60 -273 -134z"/>
<path d="M2730 4540 l0 -90 225 0 225 0 0 90 0 90 -225 0 -225 0 0 -90z"/>
<path d="M3280 4187 l0 -443 43 -16 c23 -9 72 -28 110 -42 l67 -26 0 485 0
485 -110 0 -110 0 0 -443z"/>
<path d="M3660 4115 l0 -514 40 -12 c36 -11 45 -9 107 18 l68 29 3 497 2 497
-110 0 -110 0 0 -515z"/>
<path d="M4040 4165 c0 -256 2 -465 3 -465 2 0 51 20 108 44 l104 43 3 422 2
421 -110 0 -110 0 0 -465z"/>
<path d="M4360 4540 l0 -90 150 0 150 0 0 90 0 90 -150 0 -150 0 0 -90z"/>
<path d="M2737 4363 c-4 -3 -7 -97 -7 -208 l0 -202 43 -17 c23 -9 47 -16 53
-16 11 0 18 397 8 433 -4 13 -16 17 -48 17 -23 0 -46 -3 -49 -7z"/>
<path d="M2900 4130 l0 -240 35 -15 c75 -31 70 -49 73 231 l3 251 -32 7 c-17
3 -42 6 -55 6 l-24 0 0 -240z"/>
<path d="M3072 4098 l3 -273 53 -19 c29 -10 54 -17 55 -15 1 2 1 133 -1 292
l-3 287 -54 0 -55 0 2 -272z"/>
<path d="M4367 4364 c-4 -4 -7 -126 -7 -270 l0 -263 60 21 60 22 -2 246 -3
245 -50 3 c-28 2 -54 0 -58 -4z"/>
<path d="M4550 4140 l0 -231 23 7 c12 3 37 12 55 20 l32 13 -2 208 -3 208 -52
3 -53 3 0 -231z"/>
<path d="M1385 3120 c-38 -11 -83 -22 -98 -25 -38 -8 -32 -36 10 -47 64 -17
63 -9 63 -474 0 -404 -1 -422 -20 -446 -11 -14 -33 -28 -50 -32 -23 -4 -31
-11 -28 -23 3 -16 19 -18 163 -18 140 0 160 2 163 17 2 11 -6 18 -27 23 -17 4
-40 18 -51 32 -19 25 -20 40 -20 519 0 464 -1 494 -17 493 -10 0 -49 -9 -88
-19z"/>
<path d="M4427 3112 c-106 -28 -121 -45 -57 -66 61 -20 61 -17 58 -482 -3
-395 -4 -423 -22 -442 -10 -12 -30 -22 -45 -24 -18 -2 -26 -9 -26 -23 0 -19 6
-20 160 -19 132 2 161 5 163 17 2 9 -8 17 -25 22 -15 3 -38 16 -50 27 l-23 21
0 499 c0 468 -1 498 -17 497 -10 -1 -62 -13 -116 -27z"/>
<path d="M6360 3119 c-36 -10 -77 -21 -92 -24 -38 -7 -40 -45 -3 -45 14 0 34
-9 45 -20 20 -20 20 -31 18 -463 l-3 -442 -42 -20 c-24 -11 -43 -25 -43 -31 0
-19 37 -24 183 -24 135 0 138 0 135 21 -2 14 -15 25 -38 33 -19 6 -40 22 -47
36 -14 28 -18 256 -5 264 5 3 62 -61 128 -141 65 -81 132 -162 148 -180 l29
-34 96 3 c86 3 96 5 96 22 0 12 -11 22 -31 30 -40 14 -71 41 -164 146 -120
135 -170 196 -170 209 0 12 181 191 222 219 12 9 38 21 57 28 22 7 36 19 36
29 0 15 -15 17 -135 19 -133 1 -135 1 -138 -21 -2 -16 2 -23 13 -23 32 0 56
-20 46 -37 -16 -30 -224 -232 -233 -227 -4 3 -8 160 -8 350 0 392 12 355 -100
323z"/>
<path d="M415 3042 c-23 -16 -8 -35 40 -50 l50 -17 3 -413 c1 -267 -1 -420 -8
-432 -6 -11 -26 -22 -48 -26 -48 -9 -51 -11 -45 -33 5 -18 17 -19 223 -20 307
-2 408 18 489 100 78 77 100 210 51 299 -34 60 -69 83 -200 127 -10 4 -3 10
20 19 70 28 106 52 135 93 40 56 48 157 17 217 -37 73 -107 116 -213 134 -73
11 -499 14 -514 2z m505 -93 c67 -36 90 -78 90 -159 0 -81 -23 -123 -89 -159
-37 -20 -57 -23 -154 -25 l-112 -1 -3 175 c-1 96 0 181 3 188 4 12 27 14 113
10 91 -4 115 -8 152 -29z m-8 -425 c98 -33 147 -122 127 -229 -23 -120 -102
-175 -254 -175 -49 0 -95 4 -102 8 -26 16 -33 69 -33 238 l0 174 108 0 c72 0
124 -5 154 -16z"/>
<path d="M3471 3040 c-23 -14 -7 -32 44 -49 l50 -16 3 -418 c2 -408 2 -417
-18 -435 -11 -9 -35 -19 -53 -22 -19 -3 -33 -12 -35 -22 -5 -25 75 -31 321
-25 235 5 280 14 363 70 65 43 104 108 111 185 12 132 -63 233 -190 257 -51
10 -53 20 -8 33 118 36 185 146 160 263 -20 93 -105 158 -231 179 -76 12 -498
12 -517 0z m461 -71 c168 -36 199 -262 46 -337 -60 -30 -244 -45 -259 -21 -10
16 -12 352 -2 362 10 11 158 8 215 -4z m73 -460 c85 -43 118 -117 97 -218 -15
-70 -52 -117 -116 -147 -42 -20 -67 -24 -142 -24 -134 0 -128 -9 -132 210 -2
100 -1 188 2 197 5 13 25 15 124 12 102 -4 124 -7 167 -30z"/>
<path d="M2195 2760 c-38 -10 -87 -21 -108 -25 -48 -8 -47 -35 0 -47 18 -5 37
-18 43 -29 7 -13 10 -86 8 -208 -3 -186 -3 -188 -31 -230 -40 -61 -81 -83
-141 -78 -40 4 -55 11 -78 36 l-28 31 0 281 0 282 -38 -6 c-20 -4 -70 -14
-110 -23 -56 -13 -72 -20 -72 -34 0 -11 10 -20 24 -24 55 -14 56 -20 56 -254
0 -126 5 -234 11 -257 25 -93 102 -143 200 -132 68 8 128 45 175 107 l39 51 5
-73 5 -73 105 0 c96 1 105 2 105 20 0 12 -10 21 -30 27 -55 14 -55 16 -55 354
0 172 -3 315 -7 317 -5 2 -39 -4 -78 -13z"/>
<path d="M2691 2765 c-70 -20 -111 -46 -160 -101 -61 -69 -86 -149 -86 -269 0
-88 4 -107 28 -161 34 -73 94 -135 162 -166 75 -34 200 -32 271 5 50 25 134
109 134 133 0 27 -33 23 -63 -7 -58 -59 -146 -80 -230 -55 -93 27 -151 105
-159 211 l-3 50 239 3 239 2 -5 73 c-6 86 -31 148 -84 207 -68 75 -177 104
-283 75z m149 -74 c35 -25 67 -96 75 -163 l6 -58 -165 0 -166 0 0 28 c0 42 24
116 50 152 47 65 140 84 200 41z"/>
<path d="M4990 2770 c-125 -16 -210 -84 -210 -168 0 -37 37 -72 76 -72 45 0
55 12 61 73 9 90 67 130 153 107 65 -17 99 -79 100 -182 l0 -57 -42 -5 c-252
-28 -308 -46 -362 -119 -31 -41 -34 -141 -7 -195 70 -138 288 -149 377 -20 15
21 31 38 35 38 5 0 9 -17 9 -38 0 -57 18 -74 83 -80 80 -6 127 4 127 28 0 13
-7 20 -19 20 -10 0 -29 9 -42 19 -24 19 -24 22 -29 263 -4 207 -8 248 -23 275
-48 88 -153 129 -287 113z m180 -438 c0 -129 -50 -200 -148 -210 -86 -8 -142
41 -142 125 0 97 92 158 243 162 l47 1 0 -78z"/>
<path d="M5590 2760 c-14 -5 -51 -14 -82 -20 -46 -9 -58 -15 -58 -30 0 -12 10
-21 29 -25 16 -3 35 -12 41 -20 7 -9 12 -97 13 -268 2 -233 0 -257 -16 -275
-10 -11 -31 -22 -48 -26 -31 -6 -39 -30 -13 -40 28 -11 302 -7 309 4 9 15 -13
40 -34 40 -10 0 -28 11 -40 24 -22 23 -22 28 -19 228 3 198 4 206 28 240 45
66 125 93 193 64 61 -25 67 -51 67 -304 0 -196 -2 -221 -17 -234 -10 -9 -27
-18 -38 -20 -11 -2 -21 -11 -23 -20 -3 -14 11 -17 90 -23 140 -9 212 -4 216
17 2 13 -8 22 -37 34 -26 10 -43 24 -46 38 -2 11 -6 125 -7 251 -3 210 -5 234
-24 276 -30 65 -73 92 -152 97 -86 6 -139 -16 -197 -80 -25 -28 -45 -54 -45
-59 0 -5 -5 -9 -11 -9 -6 0 -10 22 -9 58 3 90 2 92 -22 91 -13 0 -34 -4 -48
-9z"/>
<path d="M2740 1655 l0 -155 63 0 c75 0 122 24 131 68 8 34 -7 80 -29 88 -13
5 -13 8 0 27 22 32 18 74 -10 102 -21 22 -33 25 -90 25 l-65 0 0 -155z"/>
<path d="M3211 1788 c-5 -13 -32 -73 -59 -134 -65 -144 -68 -154 -47 -154 10
0 23 16 32 40 18 45 31 50 108 47 47 -2 51 -4 73 -45 21 -38 52 -57 52 -33 0
19 -133 301 -142 301 -5 0 -12 -10 -17 -22z"/>
<path d="M3550 1655 c0 -131 2 -155 15 -155 12 0 15 19 15 110 0 61 4 110 9
110 5 0 45 -42 89 -92 44 -51 89 -102 101 -112 l21 -19 0 156 c0 133 -2 157
-15 157 -12 0 -15 -18 -15 -104 0 -58 -3 -107 -8 -110 -4 -2 -33 26 -64 62
-75 87 -135 152 -142 152 -3 0 -6 -70 -6 -155z"/>
<path d="M4060 1788 c-126 -87 -71 -288 79 -288 65 0 153 55 120 76 -6 3 -27
-6 -48 -20 -20 -14 -51 -26 -68 -26 -43 0 -95 38 -112 84 -13 33 -13 44 0 79
28 81 119 110 184 59 25 -20 55 -20 55 -1 0 4 -17 20 -37 34 -50 34 -126 35
-173 3z"/>
<path d="M4480 1790 c-20 -20 -24 -36 -20 -75 3 -29 24 -49 80 -75 61 -29 76
-63 40 -92 -29 -24 -65 -23 -91 3 -11 11 -28 19 -37 17 -14 -3 -11 -10 15 -36
38 -39 95 -44 136 -12 60 47 41 111 -48 155 -64 32 -79 59 -50 89 21 21 53 21
76 0 11 -9 25 -14 35 -10 15 6 14 9 -6 31 -31 32 -100 35 -130 5z"/>
</g>
</svg>
